<svg id="Capa_1" enable-background="new 0 0 501 501" height="512" viewBox="0 0 501 501" width="512" xmlns="http://www.w3.org/2000/svg"><g><path d="m77.259 429.241c-95.679-95.678-95.679-250.803-.001-346.482 95.444-95.445 251.04-95.445 346.484 0 95.678 95.679 95.678 250.804-.001 346.482-10.352 10.352-21.4 19.584-32.993 27.696-6.415 4.489-14.234 6.506-22.011 5.597-78.66-9.191-160.985-9.069-239.548.364-5.625.675-11.296-.749-15.986-3.929-12.672-8.592-24.718-18.501-35.944-29.728z" fill="#172a7d"/><path d="m391.278 392.116c-10.991 0-19.933-8.942-19.933-19.933v-22.786c0-10.991 8.942-19.934 19.933-19.934s19.933 8.942 19.933 19.934v22.786c0 10.991-8.942 19.933-19.933 19.933zm0-51.283c-4.722 0-8.563 3.842-8.563 8.563v22.786c0 4.722 3.841 8.563 8.563 8.563s8.563-3.841 8.563-8.563v-22.786c0-4.722-3.842-8.563-8.563-8.563zm0-114.515c-10.991 0-19.933-8.942-19.933-19.933v-22.786c0-10.991 8.942-19.934 19.933-19.934s19.933 8.942 19.933 19.934v22.786c0 10.991-8.942 19.933-19.933 19.933zm0-51.283c-4.722 0-8.563 3.842-8.563 8.563v22.786c0 4.722 3.841 8.563 8.563 8.563s8.563-3.841 8.563-8.563v-22.786c0-4.721-3.842-8.563-8.563-8.563zm-253.898 273.705v-49.272c0-3.14-2.545-5.685-5.685-5.685h-10.531c-3.14 0-5.685 2.545-5.685 5.685s2.545 5.685 5.685 5.685h4.846v43.586c0 3.14 2.545 5.685 5.685 5.685 3.139.001 5.685-2.545 5.685-5.684zm-71.88-184.902c-10.991 0-19.933-8.942-19.933-19.933v-22.786c0-10.991 8.942-19.934 19.933-19.934s19.933 8.942 19.933 19.934v22.786c0 10.991-8.942 19.933-19.933 19.933zm0-51.283c-4.722 0-8.563 3.842-8.563 8.563v22.786c0 4.722 3.841 8.563 8.563 8.563s8.563-3.841 8.563-8.563v-22.786c0-4.722-3.841-8.563-8.563-8.563z" fill="#2740af"/><path d="m452.117 116.73v46.806c0 3.14-2.545 5.685-5.685 5.685s-5.685-2.545-5.685-5.685v-43.586h-4.846c-3.14 0-5.685-2.545-5.685-5.685s2.545-5.685 5.685-5.685h10.321c2.027 2.685 3.993 5.402 5.895 8.15zm-370.264-38.448c.496 1.083.773 2.287.773 3.554v22.786c0 4.722-3.841 8.563-8.563 8.563s-8.563-3.841-8.563-8.563v-9.261c-3.823 4.394-7.463 8.891-10.92 13.482 1.941 8.971 9.94 15.712 19.483 15.712 10.991 0 19.933-8.942 19.933-19.933v-22.786c0-4.211-1.313-8.121-3.55-11.343-2.91 2.516-5.776 5.112-8.593 7.789z" fill="#0280e3"/><path d="m131.694 220.721c-3.14 0-5.685-2.545-5.685-5.685v-43.586h-4.846c-3.14 0-5.685-2.545-5.685-5.685s2.545-5.685 5.685-5.685h10.531c3.14 0 5.685 2.545 5.685 5.685v49.272c.001 3.139-2.545 5.684-5.685 5.684zm336.806 43.915v-49.272c0-3.14-2.545-5.685-5.685-5.685h-10.531c-3.14 0-5.685 2.545-5.685 5.685s2.545 5.685 5.685 5.685h4.846v43.586c0 3.14 2.545 5.685 5.685 5.685 3.139.001 5.685-2.544 5.685-5.684zm-112.567-160.014v-22.786c0-10.991-8.942-19.934-19.933-19.934s-19.933 8.942-19.933 19.934v22.786c0 10.991 8.942 19.933 19.933 19.933s19.933-8.941 19.933-19.933zm-11.37-22.786v22.786c0 4.722-3.841 8.563-8.563 8.563s-8.563-3.841-8.563-8.563v-22.786c0-4.722 3.841-8.563 8.563-8.563s8.563 3.841 8.563 8.563z" fill="#314dc8"/><path d="m323.389 431.979c20.543-6.291 43.796-1.311 60.047 14.94 2.997 2.997 5.611 6.233 7.842 9.646-83.213 58.555-194.721 59.238-278.595 2.051 2.491-4.171 5.532-8.105 9.124-11.697 15.855-15.855 38.375-20.981 58.54-15.38 10.363 2.879 21.432-.024 29.303-7.354.148-.137.296-.274.445-.411 22.677-20.708 57.854-20.788 80.618-.175.498.451.986.908 1.465 1.37 8.235 7.96 20.26 10.363 31.211 7.01z" fill="#05a2f9"/><path d="m156.256 482.217c-15.11-6.288-29.719-14.155-43.573-23.601 2.49-4.171 5.532-8.105 9.124-11.697 15.854-15.855 38.375-20.981 58.54-15.38 10.364 2.879 21.432-.024 29.303-7.354.148-.137.296-.274.445-.411 15.09-13.78 35.715-18.425 54.534-13.917-15.661 4.113-29.595 14.465-37.702 29.598-.095.178-.19.357-.283.535-4.986 9.53-14.459 15.948-25.19 16.679-17.803 1.213-34.625 10.348-45.198 25.548z" fill="#0280e3"/><path d="m210.75 370.789h79.5v17.149c0 24.787-16.867 66.006-39.75 72.062-22.883-6.056-39.75-47.275-39.75-72.062zm143.75-43h-20c-5.523 0-10 4.477-10 10v13c0 5.523 4.477 10 10 10h20c5.523 0 10-4.477 10-10v-13c0-5.523-4.477-10-10-10zm-259 0h-20c-5.523 0-10 4.477-10 10v13c0 5.523 4.477 10 10 10h20c5.523 0 10-4.477 10-10v-13c0-5.523-4.477-10-10-10zm69 0h-20c-5.523 0-10 4.477-10 10v13c0 5.523 4.477 10 10 10h20c5.523 0 10-4.477 10-10v-13c0-5.523-4.477-10-10-10zm261 0h-20c-5.523 0-10 4.477-10 10v13c0 5.523 4.477 10 10 10h20c5.523 0 10-4.477 10-10v-13c0-5.523-4.477-10-10-10z" fill="#fcb30b"/><path d="m250.916 459.885c-9.691-18.642-11.269-47.983-6.229-65.866l4.652-16.506 40.899 11.526c-.481 24.733-16.985 64.5-39.322 70.846z" fill="#f5c02c"/><path d="m297.5 400.789c0 5.523-4.477 10-10 10h-74c-5.523 0-10-4.477-10-10v-30h94z" fill="#fd2aa7"/><path d="m65.5 266.561c0-22.038 12.082-42.303 31.469-52.782l84.002-45.407c43.386-23.452 95.671-23.452 139.057 0l84.002 45.407c19.387 10.48 31.469 30.744 31.469 52.782v74.228h-370v-74.228z" fill="#fd2aa7"/><path d="m104.5 236.561v104.228h-39v-74.228c0-22.038 12.082-42.303 31.469-52.782l16.636-8.992c-5.847 9.365-9.105 20.33-9.105 31.774z" fill="#f02399"/><path d="m172 358.789c-3.866 0-7-3.134-7-7v-196.789c0-53.315 36.281-141.975 85.5-155 49.219 13.025 85.5 101.685 85.5 155v196.789c0 3.866-3.134 7-7 7z" fill="#f7e6b0"/><path d="m336 155v196.789c0 3.866-3.134 7-7 7h-125.5v-203.789c0-46.085 27.109-118.58 66.25-145.806 39.141 27.226 66.25 99.721 66.25 145.806z" fill="#fff5f5"/><path d="m336 380.789c0 5.523-4.477 10-10 10h-151c-5.523 0-10-4.477-10-10v-30h171z" fill="#f5b65d"/><path d="m336 380.789c0 5.523-4.477 10-10 10h-122.5v-40h132.5z" fill="#f9d19a"/><path d="m310.5 180c0 33.137-26.863 60-60 60s-60-26.863-60-60 26.863-60 60-60 60 26.863 60 60z" fill="#f5b65d"/><path d="m290.5 180c0 22.091-17.909 40-40 40s-40-17.909-40-40 17.909-40 40-40 40 17.909 40 40z" fill="#037e73"/><path d="m290.5 180c0 .56-.012 1.117-.034 1.671-1.442 35.097-54.489 35.097-55.931 0-.023-.554-.034-1.111-.034-1.671s.011-1.117.034-1.671c1.442-35.097 54.489-35.097 55.931 0 .022.554.034 1.111.034 1.671z" fill="#01988c"/></g></svg>